
<svg width="1192px" height="136px" viewBox="361 474 1192 136" version="1.1" xmlns="http://www.w3.org/2000/svg" xmlns:xlink="http://www.w3.org/1999/xlink">
    <g id="Group-2" stroke="none" stroke-width="1" fill="none" fill-rule="evenodd" transform="translate(368.000000, 477.000000)">
        <g id="Group">
            <path d="M202.329134,122.133043 C201.63315,121.439127 201.285162,120.62957 201.285162,119.704348 L201.633153,117.796087 L244.784003,5.55565217 C245.711983,3.01129163 247.567915,1.73913043 250.351855,1.73913043 L261.487558,1.73913043 C264.271498,1.73913043 266.12743,3.01129163 267.05541,5.55565217 L310.20626,117.796087 L310.55425,119.704348 C310.55425,120.62957 310.177264,121.439127 309.423281,122.133043 C308.669297,122.82696 307.828328,123.173913 306.900348,123.173913 L298.722566,123.173913 C297.562591,123.173913 296.605626,122.855873 295.851642,122.219783 C295.097659,121.583692 294.604677,120.918699 294.372682,120.224783 L284.628941,95.243913 L227.036476,95.243913 L217.466731,120.224783 C216.538751,122.190879 215.088804,123.173913 213.116847,123.173913 L204.76507,123.173913 C203.83709,123.173913 203.025119,122.82696 202.329134,122.133043 Z M232.082342,80.8452174 L279.757071,80.8452174 L255.919706,18.5665217 L232.082342,80.8452174 Z M342.607676,120.398261 C335.589828,117.391289 330.254024,113.430242 326.600103,108.515 C322.946182,103.599758 321.003253,98.308724 320.771258,92.6417391 C320.771258,91.7165171 321.119245,90.90696 321.81523,90.2130435 C322.511215,89.519127 323.381183,89.1721739 324.425161,89.1721739 L332.950934,89.1721739 C335.038888,89.1721739 336.488835,90.3286841 337.300818,92.6417391 C338.344795,97.4991547 341.331686,101.691504 346.261579,105.218913 C351.191472,108.746322 358.238214,110.51 367.402015,110.51 C377.261802,110.51 384.627532,108.775235 389.499427,105.305652 C394.371321,101.83607 396.807232,97.0365524 396.807232,90.9069565 C396.807232,86.9747629 395.618275,83.7365345 393.240327,81.1921739 C390.862378,78.6478134 387.324508,76.4215313 382.62661,74.5132609 C377.928711,72.6049905 370.88197,70.2630574 361.486173,67.4873913 C352.554366,64.9430308 345.449627,62.2252318 340.171741,59.333913 C334.893855,56.4425942 330.921001,52.8863255 328.253059,48.665 C325.585116,44.4436745 324.251165,39.094815 324.251165,32.6182609 C324.251165,26.3730123 325.933104,20.7928507 329.297031,15.8776087 C332.660958,10.9623667 337.53278,7.08805765 343.912641,4.25456522 C350.292503,1.42107279 357.832227,0.00434782608 366.532039,0.00434782608 C375.579843,0.00434782608 383.322559,1.59454932 389.76042,4.775 C396.19828,7.95545068 401.099101,11.9454108 404.463028,16.745 C407.826955,21.5445892 409.624889,26.3730192 409.856884,31.2304348 C409.856884,32.2713096 409.508897,33.1386922 408.812912,33.8326087 C408.116927,34.5265252 407.246959,34.8734783 406.202981,34.8734783 L397.503213,34.8734783 C396.575233,34.8734783 395.705265,34.5843507 394.893283,34.006087 C394.0813,33.4278232 393.501322,32.5604406 393.153329,31.403913 C392.457344,26.4308447 389.673446,22.3252336 384.801552,19.0869565 C379.929657,15.8486795 373.83988,14.2295652 366.532039,14.2295652 C358.644209,14.2295652 352.380439,15.7619412 347.740539,18.8267391 C343.10064,21.8915371 340.780725,26.4308395 340.780725,32.4447826 C340.780725,36.4926289 341.853686,39.7886829 343.999639,42.3330435 C346.145593,44.877404 349.451471,47.1325989 353.917375,49.0986957 C358.383278,51.0647924 364.908039,53.3199873 373.491853,55.8643478 C383.35164,58.6400139 391.094356,61.4156383 396.720234,64.1913043 C402.346112,66.9669704 406.550958,70.4075882 409.334898,74.5132609 C412.118838,78.6189336 413.510787,83.9099676 413.510787,90.3865217 C413.510787,101.25788 409.363939,109.729317 401.070118,115.801087 C392.776298,121.872856 381.553709,124.908696 367.402015,124.908696 C357.890221,124.908696 349.625524,123.405232 342.607676,120.398261 Z M463.833726,122.046304 C463.079742,121.294561 462.702756,120.340441 462.702756,119.183913 L462.702756,16.6582609 L429.121651,16.6582609 C427.961676,16.6582609 427.004711,16.2823951 426.250727,15.5306522 C425.496743,14.7789093 425.119757,13.8247884 425.119757,12.6682609 L425.119757,5.9026087 C425.119757,4.63042842 425.496743,3.61848202 426.250727,2.86673913 C427.004711,2.11499624 427.961676,1.73913043 429.121651,1.73913043 L512.639425,1.73913043 C513.915397,1.73913043 514.901361,2.11499624 515.597346,2.86673913 C516.293331,3.61848202 516.641318,4.63042842 516.641318,5.9026087 L516.641318,12.6682609 C516.641318,13.8247884 516.264332,14.7789093 515.510348,15.5306522 C514.756365,16.2823951 513.7994,16.6582609 512.639425,16.6582609 L479.232315,16.6582609 L479.232315,119.183913 C479.232315,120.340441 478.82633,121.294561 478.014348,122.046304 C477.202365,122.798047 476.216401,123.173913 475.056427,123.173913 L466.704649,123.173913 C465.544674,123.173913 464.587709,122.798047 463.833726,122.046304 Z M538.516015,122.046304 C537.82003,121.294561 537.472043,120.340441 537.472043,119.183913 L537.472043,5.9026087 C537.472043,4.63042842 537.82003,3.61848202 538.516015,2.86673913 C539.212,2.11499624 540.139966,1.73913043 541.299941,1.73913043 L583.75481,1.73913043 C596.978524,1.73913043 607.331144,4.83279515 614.812982,11.0202174 C622.29482,17.2076396 626.035683,26.1995062 626.035683,37.996087 C626.035683,46.7856961 623.831764,54.0138847 619.423859,59.6808696 C615.015955,65.3478544 608.86818,69.279989 600.980351,71.4773913 L627.775637,117.796087 C628.123629,118.490003 628.297623,119.126084 628.297623,119.704348 C628.297623,120.62957 627.949636,121.439127 627.253651,122.133043 C626.557666,122.82696 625.745695,123.173913 624.817716,123.173913 L617.16192,123.173913 C615.421957,123.173913 614.059007,122.769134 613.073029,121.959565 C612.08705,121.149996 611.188083,119.993486 610.3761,118.49 L584.798782,74.0795652 L553.827607,74.0795652 L553.827607,119.183913 C553.827607,120.340441 553.421622,121.294561 552.60964,122.046304 C551.797657,122.798047 550.811694,123.173913 549.651719,123.173913 L541.299941,123.173913 C540.139966,123.173913 539.212,122.798047 538.516015,122.046304 Z M583.058828,59.8543478 C600.574449,59.8543478 609.332128,52.5105082 609.332128,37.8226087 C609.332128,23.1347092 600.574449,15.7908696 583.058828,15.7908696 L553.827607,15.7908696 L553.827607,59.8543478 L583.058828,59.8543478 Z M660.612042,113.025435 C652.37622,105.103221 648.026379,93.1622537 647.562389,77.2021739 C647.446392,73.7325913 647.388394,68.8174231 647.388394,62.4565217 C647.388394,56.0956204 647.446392,51.2382776 647.562389,47.8843478 C648.026379,32.1555735 652.521215,20.2435187 661.04703,12.1478261 C669.572845,4.05213343 681.085424,0.00434782608 695.58511,0.00434782608 C710.084796,0.00434782608 721.568375,4.05213343 730.036192,12.1478261 C738.504008,20.2435187 742.969845,32.1555735 743.433835,47.8843478 C743.66583,54.5922075 743.781825,59.4495502 743.781825,62.4565217 C743.781825,65.3478405 743.66583,70.2630088 743.433835,77.2021739 C742.969845,93.1622537 738.649003,105.103221 730.47118,113.025435 C722.293357,120.947648 710.664783,124.908696 695.58511,124.908696 C680.505436,124.908696 668.847863,120.947648 660.612042,113.025435 Z M717.856516,102.096304 C723.424396,96.4871459 726.440285,87.9000578 726.904275,76.3347826 C727.13627,69.3956175 727.252266,64.7695768 727.252266,62.4565217 C727.252266,59.9121612 727.13627,55.2861205 726.904275,48.5782609 C726.440285,37.0129857 723.424396,28.3969849 717.856516,22.73 C712.288637,17.0630151 704.864909,14.2295652 695.58511,14.2295652 C686.305311,14.2295652 678.852584,17.0630151 673.226705,22.73 C667.600827,28.3969849 664.613937,37.0129857 664.265944,48.5782609 C664.149947,51.9321907 664.091949,56.5582314 664.091949,62.4565217 C664.091949,68.2391593 664.149947,72.8652 664.265944,76.3347826 C664.613937,87.9000578 667.571828,96.4871459 673.139708,102.096304 C678.707587,107.705463 686.189313,110.51 695.58511,110.51 C704.864909,110.51 712.288637,107.705463 717.856516,102.096304 Z M771.572365,122.046304 C770.87638,121.294561 770.528392,120.340441 770.528392,119.183913 L770.528392,5.72913043 C770.528392,4.57260291 770.87638,3.61848202 771.572365,2.86673913 C772.26835,2.11499624 773.196316,1.73913043 774.35629,1.73913043 L783.056059,1.73913043 C784.216034,1.73913043 785.144,2.11499624 785.839984,2.86673913 C786.535969,3.61848202 786.883957,4.57260291 786.883957,5.72913043 L786.883957,108.601739 L844.998408,108.601739 C846.27438,108.601739 847.289343,108.977605 848.043327,109.729348 C848.79731,110.481091 849.174297,111.435212 849.174297,112.591739 L849.174297,119.183913 C849.174297,120.340441 848.768312,121.294561 847.956329,122.046304 C847.144347,122.798047 846.158383,123.173913 844.998408,123.173913 L774.35629,123.173913 C773.196316,123.173913 772.26835,122.798047 771.572365,122.046304 Z M858.347332,122.133043 C857.651347,121.439127 857.30336,120.62957 857.30336,119.704348 L857.651351,117.796087 L900.802201,5.55565217 C901.730181,3.01129163 903.586113,1.73913043 906.370052,1.73913043 L917.505756,1.73913043 C920.289695,1.73913043 922.145627,3.01129163 923.073607,5.55565217 L966.224457,117.796087 L966.572448,119.704348 C966.572448,120.62957 966.195462,121.439127 965.441478,122.133043 C964.687495,122.82696 963.846525,123.173913 962.918545,123.173913 L954.740763,123.173913 C953.580789,123.173913 952.623824,122.855873 951.86984,122.219783 C951.115856,121.583692 950.622874,120.918699 950.390879,120.224783 L940.647139,95.243913 L883.054674,95.243913 L873.484929,120.224783 C872.556949,122.190879 871.107002,123.173913 869.135045,123.173913 L860.783267,123.173913 C859.855287,123.173913 859.043317,122.82696 858.347332,122.133043 Z M888.100539,80.8452174 L935.775269,80.8452174 L911.937904,18.5665217 L888.100539,80.8452174 Z M987.403173,122.046304 C986.707188,121.294561 986.359201,120.340441 986.359201,119.183913 L986.359201,5.9026087 C986.359201,4.63042842 986.707188,3.61848202 987.403173,2.86673913 C988.099158,2.11499624 989.027124,1.73913043 990.187099,1.73913043 L1037.68783,1.73913043 C1049.98357,1.73913043 1059.26323,4.68823138 1065.52709,10.5865217 C1071.79096,16.4848121 1074.92284,24.1756048 1074.92284,33.6591304 C1074.92284,40.1356846 1073.4149,45.5423696 1070.39896,49.8793478 C1067.38303,54.216326 1063.84516,57.3678163 1059.78524,59.333913 C1064.77314,61.7626208 1068.94898,65.5212789 1072.31291,70.61 C1075.67684,75.6987211 1077.35878,81.5390975 1077.35878,88.1313043 C1077.35878,94.6078585 1075.87983,100.50606 1072.92189,105.826087 C1069.96396,111.146114 1065.58512,115.367376 1059.78524,118.49 C1053.98537,121.612624 1047.08362,123.173913 1039.0798,123.173913 L990.187099,123.173913 C989.027124,123.173913 988.099158,122.798047 987.403173,122.046304 Z M1035.0779,53.2621739 C1042.61774,53.2621739 1048.35953,51.5563214 1052.30344,48.1445652 C1056.24736,44.732809 1058.21929,39.9622046 1058.21929,33.8326087 C1058.21929,27.8186656 1056.27636,23.2504504 1052.39044,20.1278261 C1048.50453,17.0052018 1042.73374,15.443913 1035.0779,15.443913 L1002.71476,15.443913 L1002.71476,53.2621739 L1035.0779,53.2621739 Z M1036.81786,109.46913 C1044.2417,109.46913 1050.07048,107.47415 1054.30439,103.48413 C1058.5383,99.4941105 1060.65522,94.376553 1060.65522,88.1313043 C1060.65522,81.770403 1058.5383,76.6239327 1054.30439,72.6917391 C1050.07048,68.7595456 1044.2417,66.7934783 1036.81786,66.7934783 L1002.71476,66.7934783 L1002.71476,109.46913 L1036.81786,109.46913 Z M1104.45333,122.046304 C1103.75735,121.294561 1103.40936,120.340441 1103.40936,119.183913 L1103.40936,5.9026087 C1103.40936,4.63042842 1103.75735,3.61848202 1104.45333,2.86673913 C1105.14932,2.11499624 1106.07728,1.73913043 1107.23726,1.73913043 L1178.74935,1.73913043 C1180.02533,1.73913043 1181.04029,2.11499624 1181.79427,2.86673913 C1182.54826,3.61848202 1182.92524,4.63042842 1182.92524,5.9026087 L1182.92524,12.1478261 C1182.92524,13.3043536 1182.54826,14.2295617 1181.79427,14.9234783 C1181.04029,15.6173948 1180.02533,15.9643478 1178.74935,15.9643478 L1119.41693,15.9643478 L1119.41693,54.65 L1174.92146,54.65 C1176.19743,54.65 1177.21239,55.0258658 1177.96637,55.7776087 C1178.72036,56.5293516 1179.09734,57.541298 1179.09734,58.8134783 L1179.09734,64.7117391 C1179.09734,65.8682667 1178.72036,66.8223875 1177.96637,67.5741304 C1177.21239,68.3258733 1176.19743,68.7017391 1174.92146,68.7017391 L1119.41693,68.7017391 L1119.41693,108.775217 L1180.14132,108.775217 C1181.41729,108.775217 1182.43225,109.151083 1183.18624,109.902826 C1183.94022,110.654569 1184.31721,111.666515 1184.31721,112.938696 L1184.31721,119.183913 C1184.31721,120.340441 1183.91122,121.294561 1183.09924,122.046304 C1182.28726,122.798047 1181.30129,123.173913 1180.14132,123.173913 L1107.23726,123.173913 C1106.07728,123.173913 1105.14932,122.798047 1104.45333,122.046304 Z" id="ASTROLABE" fill="#FFFFFF"></path>
            <path d="M121.918706,4.47826087 L0,4.47826087 L0,125 C66.9885493,125 121.358992,71.1360202 121.918706,4.47826087 Z" id="Combined-Shape" stroke="#FFFFFF" stroke-width="14" stroke-linejoin="round"></path>
            <ellipse id="Oval-4" fill="#FFFFFF" cx="52.198609" cy="56.5217391" rx="13.736476" ry="13.6956522"></ellipse>
        </g>
    </g>
</svg>
